<svg xmlns="http://www.w3.org/2000/svg" viewBox="0 0 64 64" width="64" height="64">
  <rect width="64" height="64" rx="14" fill="#0a0a0a"/>
  <path
    d="M48.5028 45.4325C48.5028 48.0723 47.9805 50.3654 46.9319 52.3157C45.8832 54.266 44.4537 55.8854 42.6353 57.1777C40.817 58.47 38.6962 59.4432 36.273 60.1051C33.8498 60.7671 31.2853 61.0941 28.5872 61.0941H0V0H32.6363C34.6746 0 36.5204 0.460983 38.1739 1.37507C39.8273 2.2931 41.2293 3.48298 42.3879 4.94474C43.5465 6.40649 44.438 8.07312 45.0742 9.93675C45.7065 11.8004 46.0246 13.7113 46.0246 15.6577C46.0246 18.5851 45.3216 21.3353 43.9156 23.9199C42.5097 26.5006 40.4046 28.4509 37.5926 29.7709C40.9505 30.8031 43.6093 32.6392 45.5651 35.279C47.521 37.9188 48.4989 41.3033 48.4989 45.4325H48.5028ZM13.5494 12.0486V24.6961H26.8513C28.3398 24.6961 29.6594 24.18 30.8179 23.1477C31.9765 22.1154 32.5538 20.5078 32.5538 18.329C32.5538 16.3235 32.0433 14.7712 31.0261 13.6837C30.005 12.5963 28.7796 12.0486 27.3501 12.0486H13.5494ZM34.7021 42.5956C34.7021 40.7044 34.1797 39.0969 33.1311 37.777C32.0825 36.4571 30.7629 35.7991 29.1645 35.7991H13.5494V49.1361H28.5872C30.3506 49.1361 31.8115 48.5333 32.9662 47.3276C34.1248 46.122 34.7021 44.546 34.7021 42.5956Z"
    fill="#a3e635"
    transform="translate(16, 12) scale(0.65)"
  />
</svg>
